<svg id="visual" viewBox="0 0 960 540" width="960" height="540" xmlns="http://www.w3.org/2000/svg" xmlns:xlink="http://www.w3.org/1999/xlink" version="1.1"><rect x="0" y="0" width="960" height="540" fill="#002440"></rect><path d="M0 237L26.7 245.8C53.3 254.7 106.7 272.3 160 274.2C213.3 276 266.7 262 320 260.5C373.3 259 426.7 270 480 265.3C533.3 260.7 586.7 240.3 640 239.7C693.3 239 746.7 258 800 270.3C853.3 282.7 906.7 288.3 933.3 291.2L960 294L960 541L933.3 541C906.7 541 853.3 541 800 541C746.7 541 693.3 541 640 541C586.7 541 533.3 541 480 541C426.7 541 373.3 541 320 541C266.7 541 213.3 541 160 541C106.7 541 53.3 541 26.7 541L0 541Z" fill="#2eb0f6"></path><path d="M0 272L26.7 273.5C53.3 275 106.7 278 160 278.2C213.3 278.3 266.7 275.7 320 284C373.3 292.3 426.7 311.7 480 320C533.3 328.3 586.7 325.7 640 312C693.3 298.3 746.7 273.7 800 267.7C853.3 261.7 906.7 274.3 933.3 280.7L960 287L960 541L933.3 541C906.7 541 853.3 541 800 541C746.7 541 693.3 541 640 541C586.7 541 533.3 541 480 541C426.7 541 373.3 541 320 541C266.7 541 213.3 541 160 541C106.7 541 53.3 541 26.7 541L0 541Z" fill="#53a1f4"></path><path d="M0 341L26.7 334.2C53.3 327.3 106.7 313.7 160 310.2C213.3 306.7 266.7 313.3 320 319.3C373.3 325.3 426.7 330.7 480 328.3C533.3 326 586.7 316 640 305.8C693.3 295.7 746.7 285.3 800 285.7C853.3 286 906.7 297 933.3 302.5L960 308L960 541L933.3 541C906.7 541 853.3 541 800 541C746.7 541 693.3 541 640 541C586.7 541 533.3 541 480 541C426.7 541 373.3 541 320 541C266.7 541 213.3 541 160 541C106.7 541 53.3 541 26.7 541L0 541Z" fill="#7490eb"></path><path d="M0 382L26.7 381.3C53.3 380.7 106.7 379.3 160 373.5C213.3 367.7 266.7 357.3 320 356.8C373.3 356.3 426.7 365.7 480 366.2C533.3 366.7 586.7 358.3 640 359.8C693.3 361.3 746.7 372.7 800 368.8C853.3 365 906.7 346 933.3 336.5L960 327L960 541L933.3 541C906.7 541 853.3 541 800 541C746.7 541 693.3 541 640 541C586.7 541 533.3 541 480 541C426.7 541 373.3 541 320 541C266.7 541 213.3 541 160 541C106.7 541 53.3 541 26.7 541L0 541Z" fill="#907edc"></path><path d="M0 363L26.7 372.8C53.3 382.7 106.7 402.3 160 402C213.3 401.7 266.7 381.3 320 373.8C373.3 366.3 426.7 371.7 480 376C533.3 380.3 586.7 383.7 640 382.5C693.3 381.3 746.7 375.7 800 375C853.3 374.3 906.7 378.7 933.3 380.8L960 383L960 541L933.3 541C906.7 541 853.3 541 800 541C746.7 541 693.3 541 640 541C586.7 541 533.3 541 480 541C426.7 541 373.3 541 320 541C266.7 541 213.3 541 160 541C106.7 541 53.3 541 26.7 541L0 541Z" fill="#a86ac6"></path><path d="M0 456L26.7 449.8C53.3 443.7 106.7 431.3 160 423.5C213.3 415.7 266.7 412.3 320 408.7C373.3 405 426.7 401 480 399.5C533.3 398 586.7 399 640 400.8C693.3 402.7 746.7 405.3 800 413.5C853.3 421.7 906.7 435.3 933.3 442.2L960 449L960 541L933.3 541C906.7 541 853.3 541 800 541C746.7 541 693.3 541 640 541C586.7 541 533.3 541 480 541C426.7 541 373.3 541 320 541C266.7 541 213.3 541 160 541C106.7 541 53.3 541 26.7 541L0 541Z" fill="#ba53ab"></path><path d="M0 485L26.7 481.7C53.3 478.3 106.7 471.7 160 466.3C213.3 461 266.7 457 320 456.5C373.3 456 426.7 459 480 463.8C533.3 468.7 586.7 475.3 640 474C693.3 472.7 746.7 463.3 800 462.8C853.3 462.3 906.7 470.7 933.3 474.8L960 479L960 541L933.3 541C906.7 541 853.3 541 800 541C746.7 541 693.3 541 640 541C586.7 541 533.3 541 480 541C426.7 541 373.3 541 320 541C266.7 541 213.3 541 160 541C106.7 541 53.3 541 26.7 541L0 541Z" fill="#c43b8b"></path><path d="M0 505L26.7 501.5C53.3 498 106.7 491 160 487.5C213.3 484 266.7 484 320 489.3C373.3 494.7 426.7 505.3 480 506.8C533.3 508.3 586.7 500.7 640 494.3C693.3 488 746.7 483 800 482.2C853.3 481.3 906.7 484.7 933.3 486.3L960 488L960 541L933.3 541C906.7 541 853.3 541 800 541C746.7 541 693.3 541 640 541C586.7 541 533.3 541 480 541C426.7 541 373.3 541 320 541C266.7 541 213.3 541 160 541C106.7 541 53.3 541 26.7 541L0 541Z" fill="#c62368"></path></svg>